<svg width="103" height="159" viewBox="0 0 103 159" fill="none" xmlns="http://www.w3.org/2000/svg">
<path d="M23.8359 133.898L33.6797 89.1797H36.9844V107.953L29.3203 141.281H18.2812L5.13281 89.1797H14.6953L23.8359 133.898ZM62.2969 89.1797H71.8594L57.8672 141.281H46.8984L39.8672 109.289V89.1797H43.2422L52.3828 133.898L62.2969 89.1797Z" fill="white"/>
<path d="M29.7969 14.3594H46.6719V118H29.7969V14.3594ZM59.6094 14.3594C64.0156 14.3594 68.375 15.0625 72.6875 16.4688C77 17.875 80.8438 19.9844 84.2188 22.7969C87.6875 25.6094 90.4531 29.0313 92.5156 33.0625C94.6719 37 95.75 41.4531 95.75 46.4219C95.75 51.6719 94.8594 56.4531 93.0781 60.7656C91.2969 64.9844 88.8125 68.5469 85.625 71.4531C82.4375 74.3594 78.5938 76.6094 74.0938 78.2031C69.5938 79.7969 64.625 80.5938 59.1875 80.5938H52.4375V68.2188H62.1406C64.2031 68.2188 66.2188 67.8906 68.1875 67.2344C70.25 66.4844 72.125 65.3125 73.8125 63.7188C75.5 62.125 76.8594 59.9219 77.8906 57.1094C78.9219 54.2031 79.4375 50.6406 79.4375 46.4219C79.4375 44.7344 79.2031 42.8125 78.7344 40.6562C78.2656 38.4062 77.2812 36.2969 75.7812 34.3281C74.375 32.2656 72.3594 30.5781 69.7344 29.2656C67.1094 27.8594 63.6406 27.1562 59.3281 27.1562H52.4375V14.3594H59.6094Z" fill="white"/>
</svg>
