<svg width="73" height="135" viewBox="0 0 73 135" fill="none" xmlns="http://www.w3.org/2000/svg">
<path d="M18.5391 115.477L26.1953 80.6953H28.7656V95.2969L22.8047 121.219H14.2188L3.99219 80.6953H11.4297L18.5391 115.477ZM48.4531 80.6953H55.8906L45.0078 121.219H36.4766L31.0078 96.3359V80.6953H33.6328L40.7422 115.477L48.4531 80.6953Z" fill="black"/>
<path d="M24.5312 29.9062H35.7812V99H24.5312V29.9062ZM44.4062 29.9062C47.3438 29.9062 50.25 30.375 53.125 31.3125C56 32.25 58.5625 33.6562 60.8125 35.5312C63.125 37.4062 64.9688 39.6875 66.3438 42.375C67.7812 45 68.5 47.9688 68.5 51.2812C68.5 54.7812 67.9062 57.9688 66.7188 60.8438C65.5312 63.6562 63.875 66.0312 61.75 67.9688C59.625 69.9062 57.0625 71.4062 54.0625 72.4688C51.0625 73.5312 47.75 74.0625 44.125 74.0625H39.625V65.8125H46.0938C47.4688 65.8125 48.8125 65.5938 50.125 65.1562C51.5 64.6562 52.75 63.875 53.875 62.8125C55 61.75 55.9062 60.2812 56.5938 58.4062C57.2812 56.4688 57.625 54.0938 57.625 51.2812C57.625 50.1562 57.4688 48.875 57.1562 47.4375C56.8438 45.9375 56.1875 44.5312 55.1875 43.2188C54.25 41.8438 52.9062 40.7188 51.1562 39.8438C49.4062 38.9062 47.0938 38.4375 44.2188 38.4375H39.625V29.9062H44.4062Z" fill="black"/>
</svg>
